<svg width="1728" height="1705" xmlns="http://www.w3.org/2000/svg" xmlns:xlink="http://www.w3.org/1999/xlink" xml:space="preserve" overflow="hidden"><defs><clipPath id="clip0"><rect x="1408" y="386" width="1728" height="1705"/></clipPath></defs><g clip-path="url(#clip0)" transform="translate(-1408 -386)"><path d="M1576.46 759.795 1475.71 703.951C1420.07 673.108 1399.92 603.082 1430.71 547.542 1461.49 492.002 1531.56 471.98 1587.2 502.822L1687.94 558.667Z" fill="#F5861F" fill-rule="evenodd"/><path d="M1922.91 688.501 1811.43 889.629 1490.95 711.986 1602.44 510.857Z" fill="#F5861F" fill-rule="evenodd"/><path d="M1826.77 635.533 1927.52 691.378C1983.16 722.22 2003.31 792.246 1972.52 847.786 1941.73 903.326 1871.67 923.348 1816.03 892.506L1715.28 836.661Z" fill="#F5861F" fill-rule="evenodd"/><rect x="1410" y="598" width="230" height="1279" fill="#F8961D"/><path d="M1410 716 1410 601C1410 537.487 1461.49 486 1525 486 1588.51 486 1640 537.487 1640 601L1640 716Z" fill="#F8961D" fill-rule="evenodd"/><path d="M1640 1859 1640 1974C1640 2037.51 1588.51 2089 1525 2089 1461.49 2089 1410 2037.51 1410 1974L1410 1859Z" fill="#F8961D" fill-rule="evenodd"/><path d="M2967.12 1715.2 3067.86 1771.05C3123.5 1801.89 3143.65 1871.92 3112.87 1927.46 3082.08 1983 3012.02 2003.02 2956.38 1972.18L2855.63 1916.33Z" fill="#2C9C48" fill-rule="evenodd"/><path d="M2620.66 1786.5 2732.15 1585.37 3052.62 1763.01 2941.14 1964.14Z" fill="#2C9C48" fill-rule="evenodd"/><path d="M2716.8 1839.47 2616.06 1783.62C2560.42 1752.78 2540.27 1682.75 2571.05 1627.21 2601.84 1571.67 2671.9 1551.65 2727.54 1582.49L2828.29 1638.34Z" fill="#2C9C48" fill-rule="evenodd"/><rect x="2903" y="598" width="230" height="1279" fill="#4CB853"/><path d="M3133 1759 3133 1874C3133 1937.51 3081.51 1989 3018 1989 2954.49 1989 2903 1937.51 2903 1874L2903 1759Z" fill="#4CB853" fill-rule="evenodd"/><path d="M2903 616 2903 501C2903 437.487 2954.49 386 3018 386 3081.51 386 3133 437.487 3133 501L3133 616Z" fill="#4CB853" fill-rule="evenodd"/><path d="M1943.28 1367.34 1814.68 1176.7 2875.46 461.194 3004.05 651.84Z" fill="#28A992" fill-rule="evenodd"/><path d="M2041.53 1301.07 1946.04 1365.48C1893.3 1401.05 1821.76 1387.21 1786.25 1334.57 1750.74 1281.92 1764.7 1210.41 1817.45 1174.83L1912.94 1110.42Z" fill="#28A992" fill-rule="evenodd"/><path d="M2860.14 471.527 2955.64 407.114C3008.38 371.54 3079.92 385.379 3115.43 438.024 3150.94 490.67 3136.97 562.186 3084.23 597.76L2988.73 662.173Z" fill="#28A992" fill-rule="evenodd"/><path d="M1585.33 2073.08 1456.74 1882.44 2517.51 1166.93 2646.11 1357.58Z" fill="#E01F27" fill-rule="evenodd"/><path d="M1683.59 2006.81 1588.09 2071.22C1535.35 2106.79 1463.81 2092.95 1428.3 2040.31 1392.79 1987.66 1406.76 1916.15 1459.5 1880.57L1555 1816.16Z" fill="#E01F27" fill-rule="evenodd"/><path d="M2502.2 1177.27 2597.69 1112.85C2650.43 1077.28 2721.97 1091.12 2757.48 1143.76 2792.99 1196.41 2779.02 1267.93 2726.28 1303.5L2630.79 1367.91Z" fill="#E01F27" fill-rule="evenodd"/></g></svg>