<svg width="3322" height="2363" xmlns="http://www.w3.org/2000/svg" xmlns:xlink="http://www.w3.org/1999/xlink" xml:space="preserve" overflow="hidden"><defs><clipPath id="clip0"><rect x="525" y="83" width="3322" height="2363"/></clipPath></defs><g clip-path="url(#clip0)" transform="translate(-525 -83)"><path d="M1507.71 457.295 1406.96 401.45C1351.32 370.608 1331.17 300.581 1361.96 245.041 1392.74 189.501 1462.81 169.48 1518.45 200.322L1619.19 256.167Z" fill="#F5861F" fill-rule="evenodd"/><path d="M1854.16 386.001 1742.68 587.129 1422.2 409.485 1533.69 208.357Z" fill="#F5861F" fill-rule="evenodd"/><path d="M1758.02 333.033 1858.77 388.877C1914.41 419.719 1934.56 489.746 1903.77 545.286 1872.98 600.826 1802.92 620.847 1747.28 590.005L1646.53 534.161Z" fill="#F5861F" fill-rule="evenodd"/><rect x="1342" y="295" width="229" height="1280" fill="#F8961D"/><path d="M1342 414 1342 298.5C1342 234.711 1393.26 183 1456.5 183 1519.74 183 1571 234.711 1571 298.5L1571 414Z" fill="#F8961D" fill-rule="evenodd"/><path d="M1571 1556 1571 1671.5C1571 1735.29 1519.74 1787 1456.5 1787 1393.26 1787 1342 1735.29 1342 1671.5L1342 1556Z" fill="#F8961D" fill-rule="evenodd"/><path d="M2898.37 1412.7 2999.11 1468.55C3054.75 1499.39 3074.9 1569.42 3044.12 1624.96 3013.33 1680.5 2943.27 1700.52 2887.63 1669.68L2786.88 1613.83Z" fill="#2C9C48" fill-rule="evenodd"/><path d="M2551.91 1484 2663.4 1282.87 2983.87 1460.51 2872.39 1661.64Z" fill="#2C9C48" fill-rule="evenodd"/><path d="M2648.05 1536.97 2547.31 1481.12C2491.67 1450.28 2471.52 1380.25 2502.3 1324.71 2533.09 1269.17 2603.15 1249.15 2658.79 1279.99L2759.54 1335.84Z" fill="#2C9C48" fill-rule="evenodd"/><rect x="2835" y="295" width="230" height="1280" fill="#4CB853"/><path d="M3065 1456 3065 1571.5C3065 1635.29 3013.51 1687 2950 1687 2886.49 1687 2835 1635.29 2835 1571.5L2835 1456Z" fill="#4CB853" fill-rule="evenodd"/><path d="M2835 314 2835 198.5C2835 134.711 2886.49 82.9997 2950 82.9997 3013.51 82.9997 3065 134.711 3065 198.5L3065 314Z" fill="#4CB853" fill-rule="evenodd"/><path d="M1874.53 1064.84 1745.93 874.196 2806.71 158.693 2935.3 349.339Z" fill="#28A992" fill-rule="evenodd"/><path d="M1972.78 998.565 1877.29 1062.98C1824.55 1098.55 1753.01 1084.71 1717.5 1032.07 1681.99 979.422 1695.96 907.906 1748.7 872.332L1844.19 807.919Z" fill="#28A992" fill-rule="evenodd"/><path d="M2791.39 169.026 2886.89 104.614C2939.63 69.0394 3011.17 82.8784 3046.68 135.524 3082.19 188.169 3068.22 259.685 3015.48 295.26L2919.98 359.672Z" fill="#28A992" fill-rule="evenodd"/><path d="M1516.58 1770.58 1387.99 1579.94 2448.77 864.434 2577.36 1055.08Z" fill="#E01F27" fill-rule="evenodd"/><path d="M1614.84 1704.31 1519.34 1768.72C1466.6 1804.29 1395.06 1790.45 1359.55 1737.81 1324.04 1685.16 1338.01 1613.65 1390.75 1578.07L1486.25 1513.66Z" fill="#E01F27" fill-rule="evenodd"/><path d="M2433.45 874.767 2528.94 810.354C2581.68 774.78 2653.22 788.619 2688.73 841.264 2724.24 893.91 2710.27 965.426 2657.53 1001L2562.04 1065.41Z" fill="#E01F27" fill-rule="evenodd"/><text font-family="Montserrat Black,Montserrat Black_MSFontService,sans-serif" font-weight="900" font-size="367" transform="matrix(1 0 0 1 745.01 2134)">GRADEGENIUS</text></g></svg>